<?xml version="1.0" encoding="utf-8"?>
<!-- Generator: Adobe Illustrator 25.1.0, SVG Export Plug-In . SVG Version: 6.00 Build 0)  -->
<svg version="1.1" id="Warstwa_1" xmlns="http://www.w3.org/2000/svg" xmlns:xlink="http://www.w3.org/1999/xlink" x="0px" y="0px"
	 viewBox="0 0 396.06 245.13" style="enable-background:new 0 0 396.06 245.13;" xml:space="preserve">
<style type="text/css">
	.st0{fill:#F6E8CC;stroke:#000000;stroke-miterlimit:10;}
	.st1{fill:#3E9B9B;stroke:#010202;stroke-miterlimit:10;}
	.st2{fill:#64B76A;stroke:#010202;stroke-miterlimit:10;}
	.st3{fill:#F1AF00;stroke:#010202;stroke-miterlimit:10;}
	.st4{fill:#2F2726;stroke:#010202;stroke-miterlimit:10;}
	.st5{fill:#AC9D61;stroke:#010202;stroke-miterlimit:10;}
	.st6{fill:#F0E9DE;stroke:#010202;stroke-miterlimit:10;}
	.st7{fill:none;stroke:#010202;stroke-miterlimit:10;}
	.st8{fill:#F6B6BA;stroke:#010202;stroke-miterlimit:10;}
	.st9{fill:#010202;}
	.st10{fill:#D45714;stroke:#010202;stroke-miterlimit:10;}
</style>
<g>
	<g>
		<path class="st0" d="M31.82,18.06v189.08H7.74V0.5h5.73C23.61,0.5,31.82,8.36,31.82,18.06z"/>
		<polygon class="st10" points="76.46,116.68 66.07,72.53 27.78,134.39 		"/>
		<polygon class="st10" points="98.54,182.48 79.73,141.2 147.88,166.69 		"/>
		<circle class="st4" cx="58.27" cy="162.93" r="50.16"/>
		<g>
			<circle class="st10" cx="62.82" cy="181.42" r="16.78"/>
			<circle class="st10" cx="39.16" cy="157.53" r="16.78"/>
			<path class="st9" d="M61.77,161.29c1.82,2.38,0.45,5.85-2.49,6.42c-3.84,0.74-8.22,1.61-8.26,1.69c-0.04,0.1,0.89-4.77,1.6-8.46
				c0.58-3.02,4.16-4.31,6.55-2.38C60,159.22,60.87,160.1,61.77,161.29z"/>
		</g>
		<g>
			<circle class="st0" cx="82.8" cy="165.41" r="4.36"/>
		</g>
		<path class="st10" d="M353.09,32.7c26.23,18.85,41.89,49.36,41.89,81.62c0,37.31,0.44,130.2,0.44,130.2L0.5,244.28V43.5
			c19.5,0,18.79,18.79,18.79,18.79v122.67c0,0-1.06,16.49,16.49,16.49l257.28,0.3c0.47-0.11,0.97-0.17,1.47-0.17
			c48.11,0,87.24-39.14,87.24-87.24c0-28.02-13.6-54.52-36.39-70.9c-2.96-2.13-3.64-6.25-1.51-9.21
			C346,31.25,350.13,30.57,353.09,32.7z"/>
		<path class="st4" d="M18.94,84.03v115.38c0,0-1.32,20.42,20.42,20.42c21.73,0,24.81,24.81,24.81,24.81L0.5,244.28l0-142.24
			C0.5,91.92,8.83,83.79,18.94,84.03L18.94,84.03z"/>
		<path class="st4" d="M206.48,220.42h165c13.3,0,24.07,10.78,24.07,24.07v0H188.92v-5.73
			C188.92,228.63,196.78,220.42,206.48,220.42z"/>
		<path class="st0" d="M171.94,201.58v36.88l-36.88-36.88C135.06,201.58,174.14,201.58,171.94,201.58z"/>
		<path class="st0" d="M134.37,201.56v36.88l-36.88-36.88C97.49,201.56,136.56,201.56,134.37,201.56z"/>
		<path class="st0" d="M97.71,201.56v36.88l-36.88-36.88C60.83,201.56,99.9,201.56,97.71,201.56z"/>
		<path class="st4" d="M371.05,72.53c-6.21-11.43-14.95-21.5-25.78-29.28c-2.96-2.13-3.64-6.25-1.51-9.21
			c2.13-2.96,6.25-3.64,9.21-1.51c11.38,8.18,20.77,18.56,27.76,30.32L371.05,72.53z"/>
		<g>
			<circle class="st0" cx="62.59" cy="137.99" r="4.36"/>
		</g>
	</g>
	<path class="st7" d="M32.69,149.69c0,0-14.03-19.07-3.89-47.59"/>
	<path class="st7" d="M32.34,156.89c0,0-21.96-8.84-28.35-38.42"/>
	<path class="st7" d="M62.6,181.42c0,0,19.07,14.03,47.59,3.89"/>
	<path class="st7" d="M55.41,181.77c0,0,8.84,21.96,38.42,28.35"/>
</g>
</svg>
