<?xml version="1.0" encoding="utf-8"?>
<!-- Generator: Adobe Illustrator 25.1.0, SVG Export Plug-In . SVG Version: 6.00 Build 0)  -->
<svg version="1.1" id="Warstwa_1" xmlns="http://www.w3.org/2000/svg" xmlns:xlink="http://www.w3.org/1999/xlink" x="0px" y="0px"
	 viewBox="0 0 841.04 288.7" style="enable-background:new 0 0 841.04 288.7;" xml:space="preserve">
<style type="text/css">
	.st0{fill:#F6E8CC;stroke:#000000;stroke-miterlimit:10;}
	.st1{fill:#3E9B9B;stroke:#010202;stroke-miterlimit:10;}
	.st2{fill:#64B76A;stroke:#010202;stroke-miterlimit:10;}
	.st3{fill:#F1AF00;stroke:#010202;stroke-miterlimit:10;}
	.st4{fill:#2F2726;stroke:#010202;stroke-miterlimit:10;}
	.st5{fill:#AC9D61;stroke:#010202;stroke-miterlimit:10;}
	.st6{fill:#F0E9DE;stroke:#010202;stroke-miterlimit:10;}
	.st7{fill:none;stroke:#010202;stroke-miterlimit:10;}
	.st8{fill:#F6B6BA;stroke:#010202;stroke-miterlimit:10;}
	.st9{fill:#010202;}
	.st10{fill:#D45714;stroke:#010202;stroke-miterlimit:10;}
</style>
<g>
	<path class="st4" d="M759.79,207.76l-629.5,0.74l-0.09-0.18H98.17l-0.67,79.84l581.76,0.05
		C723.68,288.16,759.69,252.18,759.79,207.76L759.79,207.76z"/>
	<path class="st5" d="M585.15,234.76H210.47c-14.69,0-26.6-11.91-26.6-26.6v0h427.89v0C611.75,222.85,599.84,234.76,585.15,234.76z"
		/>
	<path class="st5" d="M98.33,251.54L98.33,251.54c-18.09,0-32.76-14.67-32.76-32.76v-60.16c0-34.11,27.65-61.77,61.77-61.77h0l0,0
		c-17.68,16.82-27.8,40.09-28.06,64.5L98.33,251.54z"/>
	<path class="st6" d="M256.33,170.73H0.5v0c0,20.57,16.67,37.24,37.24,37.24h255.83v0C293.58,187.41,276.9,170.73,256.33,170.73z"/>
	<path class="st6" d="M602.63,288.02c0,0-1.41-36.81-34.33-36.81s-30.93-30.93-30.93-30.93V36.72c0,0,1.33-35.25-35.25-35.25v286.65
		L602.63,288.02z"/>
	<g>
		<path class="st5" d="M630.54,252.15l-9.27-9.27c-33.1-33.1-33.1-86.75,0-119.85l37.63-37.63c33.1-33.1,86.75-33.1,119.85,0
			l9.27,9.27c33.1,33.1,33.1,86.75,0,119.85l-37.63,37.63C717.3,285.24,663.64,285.24,630.54,252.15z"/>
		<path class="st5" d="M683.09,75.72c37.62,15.38,62.38-39.24,26.02-57.41c-0.53-0.26-1.06-0.53-1.6-0.79
			C653.4-8.63,606.66,0.06,604.34,12.45C600.82,31.2,638.95,57.68,683.09,75.72z"/>
		<path class="st6" d="M840.09,182.37c-1.25-38.29-57.32-39.27-59.41-1.01c-0.03,0.56-0.06,1.12-0.08,1.68
			c-2.36,56.6,18.07,90.63,34.26,91.15C835.04,274.85,842.56,258.08,840.09,182.37z"/>
		<path class="st7" d="M722.68,130.71c-10.02,10.02-26.25,10.02-36.27,0s-10.02-26.25,0-36.27"/>
		<path class="st7" d="M775.65,183.37c-10.02,10.02-26.25,10.02-36.27,0s-10.02-26.25,0-36.27"/>
		<path class="st6" d="M633.53,244.31l-3.5-3.5c-12.48-12.48-12.48-32.72,0-45.2l33.33-33.33l48.7,48.7l-33.33,33.33
			C666.25,256.79,646.01,256.79,633.53,244.31z"/>
		<g>
			<path class="st8" d="M650.51,224.59l-1.81-1.81c-6.45-6.45-6.45-16.9,0-23.35l14.86-14.86l25.15,25.15l-14.86,14.86
				C667.41,231.03,656.96,231.03,650.51,224.59z"/>
			<circle class="st4" cx="652.19" cy="165.82" r="39.13"/>
			<circle class="st4" cx="707.9" cy="221.01" r="39.13"/>
			<path class="st9" d="M699.15,168.27c-5.56-4.23-13.64-1.06-14.97,5.8c-1.73,8.95-3.75,19.18-3.95,19.27
				c-0.23,0.1,11.12-2.07,19.73-3.72c7.04-1.35,10.06-9.71,5.56-15.29C703.98,172.41,701.91,170.38,699.15,168.27z"/>
		</g>
		<path class="st4" d="M708.96,18.69c-0.53-0.26-1.06-0.53-1.6-0.79C673.24,1.41,645.76-1.31,627.19,2.09
			c0.18,3.92,2.47,28.27,30.96,28.27c15.78,0,23.99,8.51,28.25,16.86c4.97,9.74,14.93,15.92,25.86,15.92h9.79
			C730.38,48.83,728.54,28.48,708.96,18.69z"/>
		<path class="st4" d="M792.82,128.19h16.09c-4.07-14.67-11.85-28.53-23.39-40.07v0c-9.3-9.3-21.11-16.15-32.63-20.6l1,21.74
			C753.9,110.77,771.32,128.19,792.82,128.19z"/>
	</g>
	<path class="st4" d="M172.96,184.2c16.94-8.8,30.5-4.24,39.72,2.35c10.77,7.69,24.9,8.77,36.64,2.67l0,0
		c6.72-3.49,10.44-10.95,9.08-18.23H124.13c-0.05,0.04-0.11,0.08-0.17,0.13C126.35,175.21,142.38,200.08,172.96,184.2z"/>
	<path class="st7" d="M529.6,36.66c0,0,1.02-27.09-27.09-27.09"/>
	<path class="st7" d="M520.98,37.74c0,0,0.7-18.48-18.48-18.48"/>
	<line class="st2" x1="2.26" y1="181.07" x2="25.71" y2="181.07"/>
	<line class="st2" x1="4.97" y1="189.36" x2="28.42" y2="189.36"/>
	<line class="st2" x1="12.11" y1="197.46" x2="35.56" y2="197.46"/>
	<g>
		<path class="st5" d="M279.05,288.12H4.6v0c0-20.57,16.67-37.24,37.24-37.24h237.21c10.28,0,18.62,8.34,18.62,18.62v0
			C297.68,279.78,289.34,288.12,279.05,288.12z"/>
		<path class="st7" d="M44.46,261.05c0,0-27.09-1.02-27.09,27.09"/>
		<path class="st7" d="M45.55,269.67c0,0-18.48-0.7-18.48,18.48"/>
	</g>
</g>
</svg>
